<svg preserveAspectRatio="none" width="100%" height="100%" overflow="visible" style="display: block;" viewBox="0 0 14.0001 14" fill="none" xmlns="http://www.w3.org/2000/svg">
<path id="Vector" d="M3.57601 0.750007H2.75001C1.80721 0.750007 1.33581 0.750007 1.0429 1.0429C0.750007 1.33581 0.750007 1.80721 0.750007 2.75001V11.25C0.750007 12.1928 0.750007 12.6642 1.0429 12.9571C1.33581 13.25 1.80721 13.25 2.75001 13.25H3.25001C4.19281 13.25 4.66421 13.25 4.95711 12.9571C5.25001 12.6642 5.25001 12.1928 5.25001 11.25L5.25011 7.75011C5.25011 6.09331 5.77811 4.75011 7.33791 4.75011C8.11771 4.75011 8.75001 5.42171 8.75001 6.25011V10.7501C8.75001 11.6929 8.75001 12.1643 9.04291 12.4572C9.33571 12.7501 9.80721 12.7501 10.75 12.7501H11.2487C12.1913 12.7501 12.6626 12.7501 12.9555 12.4573C13.2484 12.1645 13.2485 11.6932 13.2487 10.7506L13.2501 5.25021C13.2501 2.76501 10.8864 0.750247 8.54681 0.750247C7.21491 0.750247 6.02671 1.40311 5.25011 2.42401C5.25001 1.79391 5.25001 1.47891 5.11321 1.24501C5.02651 1.09687 4.90311 0.973537 4.75501 0.886877C4.52111 0.750007 4.20611 0.750007 3.57601 0.750007Z" stroke="var(--stroke-0, black)" stroke-width="1.5" stroke-linejoin="round"/>
</svg>
