<svg preserveAspectRatio="none" width="100%" height="100%" overflow="visible" style="display: block;" viewBox="0 0 27.0009 22.5013" fill="none" xmlns="http://www.w3.org/2000/svg">
<path id="Vector" d="M26.6709 12.0466L16.5459 22.1716C16.3348 22.3827 16.0485 22.5013 15.75 22.5013C15.4515 22.5013 15.1652 22.3827 14.9541 22.1716C14.743 21.9605 14.6244 21.6742 14.6244 21.3756C14.6244 21.0771 14.743 20.7908 14.9541 20.5797L23.1595 12.3756H1.125C0.826631 12.3756 0.540484 12.2571 0.329505 12.0461C0.118527 11.8351 0 11.549 0 11.2506C0 10.9523 0.118527 10.6661 0.329505 10.4551C0.540484 10.2442 0.826631 10.1256 1.125 10.1256H23.1595L14.9541 1.92156C14.743 1.71047 14.6244 1.42416 14.6244 1.12563C14.6244 0.827091 14.743 0.540784 14.9541 0.329688C15.1652 0.118592 15.4515 0 15.75 0C16.0485 0 16.3348 0.118592 16.5459 0.329688L26.6709 10.4547C26.7755 10.5592 26.8585 10.6832 26.9151 10.8198C26.9717 10.9564 27.0009 11.1028 27.0009 11.2506C27.0009 11.3985 26.9717 11.5449 26.9151 11.6814C26.8585 11.818 26.7755 11.9421 26.6709 12.0466Z" fill="var(--fill-0, #FFFBF0)"/>
</svg>
