<svg preserveAspectRatio="none" width="100%" height="100%" overflow="visible" style="display: block;" viewBox="0 0 1233 297" fill="none" xmlns="http://www.w3.org/2000/svg">
<g id="Group 1120">
<g id="Vector">
<path d="M527.957 0H1232.96V297H527.957V0Z" fill="#FFFEFA"/>
<path d="M549.978 243L610.906 76.4H653.746L714.198 243H675.88L663.028 206.586H599.72L586.868 243H549.978ZM609.24 177.788H653.27L631.136 114.48L609.24 177.788Z" fill="black"/>
<path d="M734.248 243V76.4H766.616L837.302 181.358V76.4H872.526V243H839.92L769.234 138.042V243H734.248Z" fill="black"/>
<path d="M940.164 76.4V173.028C940.164 186.515 942.782 196.669 948.018 203.492C953.254 210.315 961.505 213.726 972.77 213.726C984.035 213.726 992.286 210.315 997.522 203.492C1002.92 196.669 1005.61 186.515 1005.61 173.028V76.4H1041.31V171.124C1041.31 194.924 1035.44 213.091 1023.7 225.626C1012.12 238.161 995.142 244.428 972.77 244.428C950.398 244.428 933.421 238.161 921.838 225.626C910.255 213.091 904.464 194.924 904.464 171.124V76.4H940.164Z" fill="black"/>
<path d="M1141.17 76.4C1153.23 76.4 1163.86 78.7007 1173.06 83.302C1182.43 87.7447 1189.64 94.1707 1194.72 102.58C1199.8 110.989 1202.34 120.747 1202.34 131.854C1202.34 142.485 1199.8 151.925 1194.72 160.176C1189.64 168.268 1182.66 174.456 1173.78 178.74L1206.62 243H1167.11L1139.27 187.07H1109.04V243H1073.34V76.4H1141.17ZM1109.04 157.32H1138.32C1146.73 157.32 1153.39 155.019 1158.31 150.418C1163.39 145.817 1165.92 139.629 1165.92 131.854C1165.92 123.921 1163.39 117.653 1158.31 113.052C1153.39 108.451 1146.73 106.15 1138.32 106.15H1109.04V157.32Z" fill="black"/>
<path d="M62.986 188.736C63.6207 196.987 66.9527 203.651 72.982 208.728C79.17 213.647 87.3413 216.106 97.496 216.106C105.905 216.106 112.728 214.361 117.964 210.87C123.359 207.221 126.056 202.223 126.056 195.876C126.056 191.434 124.549 187.943 121.534 185.404C118.678 182.707 114.553 180.644 109.158 179.216C103.922 177.63 95.7507 175.725 84.644 173.504C73.696 171.442 64.4933 168.824 57.036 165.65C49.5787 162.318 43.47 157.479 38.71 151.132C34.1087 144.627 31.808 136.059 31.808 125.428C31.808 115.75 34.426 107.102 39.662 99.4862C45.0567 91.8702 52.4347 85.9202 61.796 81.6362C71.316 77.1935 82.026 74.9722 93.926 74.9722C106.143 74.9722 117.091 77.2728 126.77 81.8742C136.607 86.3168 144.303 92.5048 149.856 100.438C155.568 108.371 158.503 117.336 158.662 127.332H123.676C122.883 120.192 119.868 114.48 114.632 110.196C109.396 105.754 102.494 103.532 93.926 103.532C85.9927 103.532 79.646 105.198 74.886 108.53C70.126 111.862 67.746 116.622 67.746 122.81C67.746 127.253 69.174 130.743 72.03 133.282C74.886 135.662 78.932 137.646 84.168 139.232C89.404 140.66 97.496 142.406 108.444 144.468C119.551 146.531 128.912 149.149 136.528 152.322C144.144 155.337 150.253 160.018 154.854 166.364C159.614 172.552 161.994 180.882 161.994 191.354C161.994 201.509 159.217 210.632 153.664 218.724C148.111 226.658 140.336 232.925 130.34 237.526C120.503 242.128 109.396 244.428 97.02 244.428C83.692 244.428 71.792 242.048 61.32 237.288C51.0067 232.37 42.9147 225.626 37.044 217.058C31.1733 208.49 28.1587 198.891 28 188.26L62.986 188.736Z" fill="var(--fill-0, #FFFEFA)"/>
<path d="M222.684 76.4002V173.028C222.684 186.515 225.302 196.67 230.538 203.492C235.774 210.315 244.025 213.726 255.29 213.726C266.555 213.726 274.806 210.315 280.042 203.492C285.437 196.67 288.134 186.515 288.134 173.028V76.4002H323.834V171.124C323.834 194.924 317.963 213.092 306.222 225.626C294.639 238.161 277.662 244.428 255.29 244.428C232.918 244.428 215.941 238.161 204.358 225.626C192.775 213.092 186.984 194.924 186.984 171.124V76.4002H222.684Z" fill="var(--fill-0, #FFFEFA)"/>
<path d="M355.862 76.4002H391.562V143.278H457.726V76.4002H493.426V243H457.726V174.218H391.562V243H355.862V76.4002Z" fill="var(--fill-0, #FFFEFA)"/>
</g>
<rect id="Rectangle 95" x="2.5" y="2.5" width="1228" height="292" stroke="var(--stroke-0, #FFFEFA)" stroke-width="5"/>
</g>
</svg>
