<svg preserveAspectRatio="none" width="100%" height="100%" overflow="visible" style="display: block;" viewBox="0 0 36 36" fill="none" xmlns="http://www.w3.org/2000/svg">
<g id="Button Icon" clip-path="url(#clip0_0_25)">
<path id="Vector" d="M31.1709 18.796L21.0459 28.921C20.8348 29.132 20.5485 29.2506 20.25 29.2506C19.9515 29.2506 19.6652 29.132 19.4541 28.921C19.243 28.7099 19.1244 28.4236 19.1244 28.125C19.1244 27.8265 19.243 27.5402 19.4541 27.3291L27.6595 19.125H5.625C5.32663 19.125 5.04048 19.0065 4.82951 18.7955C4.61853 18.5845 4.5 18.2984 4.5 18C4.5 17.7016 4.61853 17.4155 4.82951 17.2045C5.04048 16.9935 5.32663 16.875 5.625 16.875H27.6595L19.4541 8.67095C19.243 8.45986 19.1244 8.17355 19.1244 7.87502C19.1244 7.57648 19.243 7.29017 19.4541 7.07908C19.6652 6.86798 19.9515 6.74939 20.25 6.74939C20.5485 6.74939 20.8348 6.86798 21.0459 7.07908L31.1709 17.2041C31.2755 17.3086 31.3585 17.4326 31.4151 17.5692C31.4717 17.7058 31.5009 17.8522 31.5009 18C31.5009 18.1479 31.4717 18.2943 31.4151 18.4308C31.3585 18.5674 31.2755 18.6915 31.1709 18.796Z" fill="var(--fill-0, #FFFBF0)"/>
<path id="Vector_2" d="M-1.82906 18.796L-11.9541 28.921C-12.1652 29.132 -12.4515 29.2506 -12.75 29.2506C-13.0485 29.2506 -13.3348 29.132 -13.5459 28.921C-13.757 28.7099 -13.8756 28.4236 -13.8756 28.125C-13.8756 27.8265 -13.757 27.5402 -13.5459 27.3291L-5.34047 19.125H-27.375C-27.6734 19.125 -27.9595 19.0065 -28.1705 18.7955C-28.3815 18.5845 -28.5 18.2984 -28.5 18C-28.5 17.7016 -28.3815 17.4155 -28.1705 17.2045C-27.9595 16.9935 -27.6734 16.875 -27.375 16.875H-5.34047L-13.5459 8.67095C-13.757 8.45986 -13.8756 8.17355 -13.8756 7.87502C-13.8756 7.57648 -13.757 7.29017 -13.5459 7.07908C-13.3348 6.86798 -13.0485 6.74939 -12.75 6.74939C-12.4515 6.74939 -12.1652 6.86798 -11.9541 7.07908L-1.82906 17.2041C-1.72446 17.3086 -1.64148 17.4326 -1.58487 17.5692C-1.52825 17.7058 -1.49912 17.8522 -1.49912 18C-1.49912 18.1479 -1.52825 18.2943 -1.58487 18.4308C-1.64148 18.5674 -1.72446 18.6915 -1.82906 18.796Z" fill="var(--fill-0, #FFFBF0)"/>
<g id="Button Icon_2">
</g>
</g>
<defs>
<clipPath id="clip0_0_25">
<rect width="36" height="36" fill="white"/>
</clipPath>
</defs>
</svg>
